<svg xmlns="http://www.w3.org/2000/svg" xmlns:xlink="http://www.w3.org/1999/xlink" viewBox="0 0 121.2 86.63"><defs><style>.cls-1{isolation:isolate;}.cls-2{fill:#0e1116;}.cls-3{fill:#262c33;}.cls-4{fill:#3a414c;}.cls-5{fill:url(#linear-gradient);}.cls-6{fill:url(#linear-gradient-2);}.cls-7{fill:#49505b;}.cls-8{fill:#6d7889;}.cls-9{fill:#212121;}.cls-10{fill:#757575;}.cls-11{fill:#313435;}.cls-12{fill:#d34d4c;}.cls-13{font-size:6.09px;font-family:Roboto-Italic, Roboto;font-style:italic;}.cls-13,.cls-18{fill:#fff;}.cls-14{letter-spacing:0.01em;}.cls-15,.cls-16,.cls-17{mix-blend-mode:multiply;}.cls-15{fill:url(#linear-gradient-3);}.cls-16{opacity:0.5;}.cls-17{fill:url(#linear-gradient-4);}.cls-18{opacity:0.05;}.cls-19{fill:#ffdda8;}.cls-20{fill:#f9c98a;}.cls-21{fill:#bc7c46;}.cls-22{fill:#dda866;}.cls-23{fill:#4f2e16;}.cls-24{fill:#9b7451;}.cls-25{fill:#caaf8f;}</style><linearGradient id="linear-gradient" x1="64.25" y1="48.46" x2="166.9" y2="48.46" gradientTransform="matrix(-1, 0, 0, 1, 176.17, 0)" gradientUnits="userSpaceOnUse"><stop offset="0" stop-color="#43b7f7"/><stop offset="1" stop-color="#7fdfff"/></linearGradient><linearGradient id="linear-gradient-2" x1="64.9" y1="48.46" x2="166.25" y2="48.46" gradientTransform="matrix(-1, 0, 0, 1, 176.17, 0)" gradientUnits="userSpaceOnUse"><stop offset="0" stop-color="#7fdfff"/><stop offset="1" stop-color="#43b7f7"/></linearGradient><linearGradient id="linear-gradient-3" x1="49.72" y1="67.7" x2="49.72" y2="37.48" gradientUnits="userSpaceOnUse"><stop offset="0" stop-color="#fff"/><stop offset="1" stop-color="#36b5e0"/></linearGradient><linearGradient id="linear-gradient-4" x1="30.61" y1="53.34" x2="55.22" y2="31.44" gradientUnits="userSpaceOnUse"><stop offset="0" stop-color="#fff"/><stop offset="1" stop-color="#e0e0e0"/></linearGradient><image id="image" width="3576" height="940" xlink:href="../../../../404/SendPack/SP-logo%20(1).png"/></defs><title>Recurso 3</title><g class="cls-1"><g id="Capa_2" data-name="Capa 2"><g id="Layer_1" data-name="Layer 1"><rect class="cls-2" x="117.52" y="54.36" width="3.68" height="3.13"/><path class="cls-2" d="M1.23,44c-1.64.95-1.64,2.48,0,3.43L67.85,85.92a6.61,6.61,0,0,0,5.94,0L120,59.26c1.65-.95,1.65-2.49,0-3.43L53.35,17.36a6.57,6.57,0,0,0-6,0Z"/><path class="cls-3" d="M1.23,40.84c-1.64.95-1.64,2.48,0,3.43L67.85,82.74a6.61,6.61,0,0,0,5.94,0L120,56.08c1.65-.95,1.65-2.49,0-3.43L53.35,14.18a6.57,6.57,0,0,0-6,0Z"/><path class="cls-4" d="M120,52.65,71.79,24.83l-2.15-1.24V83.35a7,7,0,0,0,2.15,0,5.3,5.3,0,0,0,2-.65L120,56.08C121.61,55.13,121.61,53.59,120,52.65Z"/><polygon class="cls-5" points="70.82 78.09 111.92 54.36 50.37 18.83 9.28 42.55 70.82 78.09"/><polygon class="cls-6" points="9.92 42.58 68.92 76.64 70.78 77.72 94.13 64.24 97.62 62.22 98.04 61.98 111.27 54.34 84.89 39.11 84.12 38.67 64.58 27.38 63.92 27 50.41 19.2 9.92 42.58"/><path class="cls-7" d="M30.73,26.45a.4.4,0,0,0,0,.75,1.46,1.46,0,0,0,1.29,0,.4.4,0,0,0,0-.75A1.46,1.46,0,0,0,30.73,26.45Z"/><path class="cls-8" d="M31,26.61c-.2.12-.2.31,0,.42a.79.79,0,0,0,.73,0c.2-.11.2-.3,0-.42A.85.85,0,0,0,31,26.61Z"/><path class="cls-7" d="M26.15,29.1a.39.39,0,0,0,0,.74h0a1.4,1.4,0,0,0,1.29,0L30,28.36a.4.4,0,0,0,0-.75h0a1.46,1.46,0,0,0-1.29,0Z"/><path class="cls-8" d="M26.52,29.63a.59.59,0,0,0,.55,0l2.57-1.48c.15-.09.15-.24,0-.32a.59.59,0,0,0-.55,0l-2.57,1.48A.17.17,0,0,0,26.52,29.63Z"/><path class="cls-9" d="M93.94,67.7a3.33,3.33,0,0,0,3,0l2.23-1.29a.91.91,0,0,0,0-1.73,3.33,3.33,0,0,0-3,0L93.94,66A.92.92,0,0,0,93.94,67.7Z"/><path class="cls-10" d="M94,67.66a3.16,3.16,0,0,0,2.87,0l2.23-1.29a.87.87,0,0,0,0-1.65,3.16,3.16,0,0,0-2.87,0L94,66A.88.88,0,0,0,94,67.66Z"/><path class="cls-11" d="M94.15,66.08c-.72.42-.72,1.09,0,1.5h0a2.84,2.84,0,0,0,2.6,0L99,66.3a.8.8,0,0,0,0-1.51h0a2.9,2.9,0,0,0-2.6,0Z"/><path class="cls-12" d="M99.06,52.32a.46.46,0,0,1,0,.87L68.89,70.6a1.65,1.65,0,0,1-1.5,0l-8-4.61a.46.46,0,0,1,0-.87L89.56,47.7a1.65,1.65,0,0,1,1.5,0Z"/><text class="cls-13" transform="matrix(0.87, -0.5, 0.5, 0.87, 71.68, 66.18)">ENV<tspan class="cls-14" x="11.42" y="0">I</tspan><tspan x="13.11" y="0">AR</tspan></text><polygon class="cls-15" points="76.47 72.69 62.69 72.69 22.97 49.83 22.97 36.41 76.47 37.81 76.47 72.69"/><g class="cls-16"><polygon class="cls-17" points="9.34 44.81 40.72 62.93 70.8 45.03 39.42 26.9 9.34 44.81"/></g><path class="cls-18" d="M120,52.65,100.28,41.28V67.44L120,56.08C121.61,55.13,121.61,53.59,120,52.65Z"/><polygon class="cls-18" points="94.56 37.98 78.69 28.81 78.69 79.91 94.56 70.75 94.56 37.98"/><path class="cls-19" d="M64.84,8.89l-4.69-2.7L49.43,0,23,15.28l10.74,6.2,4.67,2.7L50,30.89,76.46,15.62h0Z"/><path class="cls-20" d="M49.43.41,23.69,15.28l14.38,8.3,5.39,3.11L50,30.37l5.39-3L75.76,15.61Z"/><polygon class="cls-21" points="50.01 30.89 50.01 57.2 38.41 50.55 33.7 47.86 22.97 41.71 22.97 15.28 33.7 21.48 38.41 24.18 50.01 30.89"/><path class="cls-22" d="M50,30.89V57.2L76.46,42V15.62Z"/><polygon class="cls-23" points="64.39 29.5 64.25 29.58 64.25 27.12 64.39 27.04 64.39 29.5"/><polygon class="cls-23" points="64.9 27.29 64.8 27.46 64.32 27.14 63.85 28.01 63.74 27.95 64.32 26.9 64.9 27.29"/><polygon class="cls-23" points="65.81 28.68 65.67 28.76 65.67 26.31 65.81 26.22 65.81 28.68"/><polygon class="cls-23" points="66.31 26.47 66.21 26.64 65.74 26.33 65.26 27.19 65.16 27.14 65.74 26.09 66.31 26.47"/><path class="cls-23" d="M66.35,28.45,63.71,30s-.07,0-.07,0a.15.15,0,0,1,.07-.12l2.64-1.52s.07,0,.07,0A.15.15,0,0,1,66.35,28.45Z"/><path class="cls-23" d="M66.33,29.12l-2.6,1.49c-.27.16-.49,0-.49-.28v-3a1.08,1.08,0,0,1,.49-.86l2.6-1.5c.27-.16.49,0,.49.29v3A1.1,1.1,0,0,1,66.33,29.12Zm-2.6-2.48a.79.79,0,0,0-.35.61v3c0,.22.16.31.35.2l2.6-1.5a.78.78,0,0,0,.35-.61v-3c0-.23-.16-.32-.35-.21Z"/><path class="cls-23" d="M68.91,27.21s-.07,0-.07,0V25a.14.14,0,0,1,.07-.12s.07,0,.07,0v2.14A.14.14,0,0,1,68.91,27.21Z"/><path class="cls-23" d="M70.21,26.87l-2.6,1.5c-.27.16-.49,0-.49-.29v-3a1.1,1.1,0,0,1,.49-.86l2.6-1.5c.27-.15.49,0,.49.29v3A1.1,1.1,0,0,1,70.21,26.87Zm-2.6-2.48a.81.81,0,0,0-.35.62v3c0,.23.16.32.35.2l2.6-1.49a.81.81,0,0,0,.35-.61v-3c0-.22-.16-.32-.35-.2Z"/><path class="cls-23" d="M70,25.05c-.1-.39-.54-.48-1.07-.18a2.36,2.36,0,0,0-1.07,1.42Z"/><path class="cls-23" d="M68.53,24.82a0,0,0,0,1-.07,0v-.53a.19.19,0,0,1,.07-.12s.07,0,.07,0v.53A.15.15,0,0,1,68.53,24.82Z"/><path class="cls-23" d="M68.91,24.6s-.07,0-.07,0V24a.14.14,0,0,1,.07-.12s.07,0,.07,0v.52A.14.14,0,0,1,68.91,24.6Z"/><path class="cls-23" d="M69.28,24.39s-.07,0-.07,0v-.53a.15.15,0,0,1,.07-.12s.07,0,.07,0v.53A.17.17,0,0,1,69.28,24.39Z"/><path class="cls-23" d="M74.05,24.66l-2.59,1.5c-.28.15-.5,0-.5-.29v-3a1.08,1.08,0,0,1,.5-.86l2.59-1.5c.27-.16.49,0,.49.29v3A1.1,1.1,0,0,1,74.05,24.66Zm-2.59-2.48a.78.78,0,0,0-.36.62v3c0,.22.16.31.36.2l2.59-1.49a.81.81,0,0,0,.35-.62v-3c0-.23-.16-.32-.35-.21Z"/><path class="cls-23" d="M72.75,24.59s-.07,0-.07,0V22.41a.17.17,0,0,1,.07-.13s.07,0,.07,0v2.14A.15.15,0,0,1,72.75,24.59Z"/><path class="cls-23" d="M73.07,24.41l-.64.37s-.07,0-.07,0a.17.17,0,0,1,.07-.13l.64-.37s.07,0,.07,0A.17.17,0,0,1,73.07,24.41Z"/><path class="cls-23" d="M73.44,21.69v1a1,1,0,0,1-.43.74l-.52.3c-.23.13-.42,0-.42-.25v-1l.26-.15v1.08s0,.06.07,0a.21.21,0,0,0,.07-.13V22.25Z"/><polygon class="cls-24" points="38.41 18.74 38.41 50.55 33.7 47.86 33.7 21.45 38.41 18.74"/><polygon class="cls-25" points="64.84 8.89 38.41 24.16 38.38 24.18 33.7 21.48 33.7 21.45 38.41 18.74 60.15 6.18 64.84 8.89"/><use transform="matrix(0.01, 0, 0, 0.01, 53.04, 42)" xlink:href="#image"/><use transform="translate(37.65 20.68) rotate(-30.39) scale(0)" xlink:href="#image"/><use transform="translate(45.76 16.09) rotate(-30.39) scale(0)" xlink:href="#image"/><use transform="translate(53.68 11.45) rotate(-30.39) scale(0)" xlink:href="#image"/></g></g></g></svg>