<svg xmlns="http://www.w3.org/2000/svg" xmlns:xlink="http://www.w3.org/1999/xlink" viewBox="0 0 206.82 147.83"><defs><style>.cls-1{isolation:isolate;}.cls-2{fill:#0e1116;}.cls-3{fill:#262c33;}.cls-4{fill:#3a414c;}.cls-5{fill:url(#linear-gradient);}.cls-6{fill:url(#linear-gradient-2);}.cls-7{fill:#49505b;}.cls-8{fill:#6d7889;}.cls-9{fill:#212121;}.cls-10{fill:#757575;}.cls-11{fill:#313435;}.cls-12{fill:#de0000;}.cls-13{font-size:10px;font-family:Roboto-Bold, Roboto;font-weight:700;}.cls-13,.cls-19{fill:#fff;}.cls-14{letter-spacing:-0.04em;}.cls-15{letter-spacing:0.01em;}.cls-16,.cls-17,.cls-18{mix-blend-mode:multiply;}.cls-16{fill:url(#linear-gradient-3);}.cls-17{opacity:0.5;}.cls-18{fill:url(#linear-gradient-4);}.cls-19{opacity:0.05;}.cls-20{fill:#ffdda8;}.cls-21{fill:#f9c98a;}.cls-22{fill:#bc7c46;}.cls-23{fill:#dda866;}.cls-24{fill:#4f2e16;}.cls-25{fill:#9b7451;}.cls-26{fill:#caaf8f;}</style><linearGradient id="linear-gradient" x1="192" y1="82.69" x2="367.17" y2="82.69" gradientTransform="matrix(-1, 0, 0, 1, 382.99, 0)" gradientUnits="userSpaceOnUse"><stop offset="0" stop-color="#43b7f7"/><stop offset="1" stop-color="#7fdfff"/></linearGradient><linearGradient id="linear-gradient-2" x1="193.11" y1="82.69" x2="366.06" y2="82.69" gradientTransform="matrix(-1, 0, 0, 1, 382.99, 0)" gradientUnits="userSpaceOnUse"><stop offset="0" stop-color="#7fdfff"/><stop offset="1" stop-color="#43b7f7"/></linearGradient><linearGradient id="linear-gradient-3" x1="84.85" y1="115.53" x2="84.85" y2="63.95" gradientUnits="userSpaceOnUse"><stop offset="0" stop-color="#fff"/><stop offset="1" stop-color="#36b5e0"/></linearGradient><linearGradient id="linear-gradient-4" x1="52.23" y1="91.02" x2="94.23" y2="53.65" gradientUnits="userSpaceOnUse"><stop offset="0" stop-color="#fff"/><stop offset="1" stop-color="#e0e0e0"/></linearGradient></defs><title>Recurso 2</title><g class="cls-1"><g id="Capa_2" data-name="Capa 2"><g id="Layer_1" data-name="Layer 1"><rect class="cls-2" x="200.54" y="92.77" width="6.28" height="5.34"/><rect class="cls-2" y="72.62" width="4.51" height="5.54"/><path class="cls-2" d="M2.1,75.12C-.7,76.74-.7,79.36,2.1,81l113.68,65.63a11.21,11.21,0,0,0,10.15,0l78.79-45.49c2.8-1.61,2.8-4.24,0-5.85L91,29.63a11.19,11.19,0,0,0-10.14,0Z"/><path class="cls-3" d="M2.1,69.69c-2.8,1.62-2.8,4.24,0,5.86l113.68,65.64a11.27,11.27,0,0,0,10.15,0L204.72,95.7c2.8-1.62,2.8-4.24,0-5.86L91,24.2a11.19,11.19,0,0,0-10.14,0Z"/><path class="cls-4" d="M204.72,89.84,122.51,42.38l-3.67-2.12v102a12.54,12.54,0,0,0,3.67.06,9.31,9.31,0,0,0,3.42-1.11l78.79-45.49C207.52,94.08,207.52,91.45,204.72,89.84Z"/><polygon class="cls-5" points="120.86 133.26 190.99 92.77 85.96 32.13 15.83 72.62 120.86 133.26"/><polygon class="cls-6" points="16.93 72.66 117.61 130.78 120.79 132.62 160.63 109.63 166.58 106.19 167.3 105.77 189.89 92.73 144.86 66.74 143.56 65.98 110.2 46.73 109.08 46.07 86.03 32.76 16.93 72.66"/><path class="cls-7" d="M52.45,45.14a.67.67,0,0,0,0,1.27,2.42,2.42,0,0,0,2.19,0,.67.67,0,0,0,0-1.27A2.42,2.42,0,0,0,52.45,45.14Z"/><path class="cls-8" d="M52.92,45.42c-.34.2-.34.52,0,.71a1.36,1.36,0,0,0,1.24,0c.35-.19.35-.51,0-.71A1.38,1.38,0,0,0,52.92,45.42Z"/><path class="cls-7" d="M44.63,49.65a.67.67,0,0,0,0,1.27h0a2.44,2.44,0,0,0,2.2,0l4.38-2.53a.67.67,0,0,0,0-1.27h0a2.44,2.44,0,0,0-2.2,0Z"/><path class="cls-8" d="M45.26,50.56a1,1,0,0,0,.94,0L50.58,48c.26-.15.26-.39,0-.55a1,1,0,0,0-.94,0L45.26,50A.28.28,0,0,0,45.26,50.56Z"/><path class="cls-9" d="M160.31,115.53a5.68,5.68,0,0,0,5.14,0l3.8-2.2c1.42-.81,1.42-2.14,0-3a5.68,5.68,0,0,0-5.14,0l-3.8,2.2C158.89,113.38,158.89,114.71,160.31,115.53Z"/><path class="cls-10" d="M160.43,115.46a5.42,5.42,0,0,0,4.9,0l3.81-2.19c1.35-.78,1.35-2,0-2.83a5.42,5.42,0,0,0-4.9,0l-3.8,2.19C159.07,113.41,159.08,114.68,160.43,115.46Z"/><path class="cls-11" d="M160.66,112.77c-1.23.7-1.23,1.85,0,2.56h0a4.89,4.89,0,0,0,4.44,0l3.8-2.2a1.35,1.35,0,0,0,0-2.56h0a4.89,4.89,0,0,0-4.44,0Z"/><path class="cls-12" d="M169,89.29c.71.4.71,1.06,0,1.47l-51.48,29.73a2.88,2.88,0,0,1-2.56,0l-13.64-7.89c-.71-.4-.71-1.06,0-1.47l51.47-29.72a2.82,2.82,0,0,1,2.56,0Z"/><text class="cls-13" transform="matrix(0.85, -0.53, 0.53, 0.85, 119.42, 115.09)">C<tspan class="cls-14" x="6.54" y="0">O</tspan><tspan x="13.03" y="0">TI</tspan><tspan class="cls-15" x="22.13" y="0">Z</tspan><tspan x="28.26" y="0">AR</tspan></text><polygon class="cls-16" points="130.5 124.04 106.98 124.04 39.2 85.04 39.2 62.13 130.5 64.52 130.5 124.04"/><g class="cls-17"><polygon class="cls-18" points="15.94 76.47 69.48 107.38 120.81 76.84 67.27 45.91 15.94 76.47"/></g><path class="cls-19" d="M204.72,89.84l-33.6-19.39v44.64l33.6-19.4C207.52,94.08,207.52,91.45,204.72,89.84Z"/><polygon class="cls-19" points="161.36 64.81 134.28 49.17 134.28 136.37 161.36 120.73 161.36 64.81"/><path class="cls-20" d="M110.65,15.18l-8-4.62L84.36,0,39.2,26.07,57.52,36.65l8,4.61L85.35,52.72l45.13-26.07h0Z"/><path class="cls-21" d="M84.36.7,40.42,26.07,65,40.24l9.19,5.3,11.19,6.28,9.19-5.12,34.74-20.06Z"/><polygon class="cls-22" points="85.34 52.71 85.34 97.61 65.54 86.27 57.52 81.68 39.2 71.18 39.2 26.07 57.52 36.65 65.54 41.27 85.34 52.71"/><path class="cls-23" d="M85.35,52.72V97.61l45.13-25.9V26.65Z"/><polygon class="cls-24" points="109.89 50.34 109.65 50.48 109.65 46.28 109.89 46.14 109.89 50.34"/><polygon class="cls-24" points="110.75 46.56 110.58 46.86 109.77 46.32 108.96 47.79 108.78 47.7 109.77 45.91 110.75 46.56"/><polygon class="cls-24" points="112.3 48.95 112.06 49.09 112.06 44.89 112.3 44.75 112.3 48.95"/><polygon class="cls-24" points="113.16 45.17 112.99 45.46 112.18 44.93 111.37 46.4 111.19 46.31 112.18 44.52 113.16 45.17"/><path class="cls-24" d="M113.22,48.55l-4.5,2.6c-.06,0-.12,0-.12-.07a.28.28,0,0,1,.12-.21l4.5-2.6c.07,0,.12,0,.12.07A.26.26,0,0,1,113.22,48.55Z"/><path class="cls-24" d="M113.19,49.69l-4.43,2.55c-.47.27-.84,0-.84-.48V46.65a1.86,1.86,0,0,1,.84-1.47l4.43-2.55c.46-.27.84-.05.84.49v5.11A1.87,1.87,0,0,1,113.19,49.69Zm-4.43-4.23a1.35,1.35,0,0,0-.6,1v5.11c0,.38.27.53.6.34l4.43-2.55a1.33,1.33,0,0,0,.6-1V43.26c0-.39-.27-.54-.6-.35Z"/><path class="cls-24" d="M117.59,46.44c-.07,0-.12,0-.12-.07V42.71a.27.27,0,0,1,.12-.21c.07,0,.12,0,.12.07v3.66A.26.26,0,0,1,117.59,46.44Z"/><path class="cls-24" d="M119.8,45.85l-4.42,2.56c-.47.27-.85.05-.85-.49V42.81a1.86,1.86,0,0,1,.85-1.46l4.42-2.56c.47-.27.85,0,.85.49v5.11A1.84,1.84,0,0,1,119.8,45.85Zm-4.42-4.22a1.34,1.34,0,0,0-.61,1v5.11c0,.39.28.54.61.35l4.42-2.55a1.32,1.32,0,0,0,.6-1V39.42c0-.38-.27-.54-.61-.35Z"/><path class="cls-24" d="M119.42,42.75c-.18-.67-.93-.82-1.83-.3a4,4,0,0,0-1.83,2.41Z"/><path class="cls-24" d="M117,42.35c-.06,0-.12,0-.12-.07v-.89a.28.28,0,0,1,.12-.21c.07,0,.12,0,.12.07v.89A.26.26,0,0,1,117,42.35Z"/><path class="cls-24" d="M117.59,42c-.07,0-.12,0-.12-.07V41a.29.29,0,0,1,.12-.21c.07,0,.12,0,.12.07v.9A.24.24,0,0,1,117.59,42Z"/><path class="cls-24" d="M118.22,41.62c-.06,0-.11,0-.11-.07v-.89a.27.27,0,0,1,.11-.21c.07,0,.13,0,.13.06v.9A.28.28,0,0,1,118.22,41.62Z"/><path class="cls-24" d="M126.36,42.08l-4.42,2.55c-.47.27-.85,0-.85-.48V39a1.84,1.84,0,0,1,.85-1.46L126.36,35c.47-.27.85-.05.85.49v5.11A1.87,1.87,0,0,1,126.36,42.08Zm-4.42-4.23a1.34,1.34,0,0,0-.6,1V44c0,.38.27.54.6.35l4.42-2.56a1.28,1.28,0,0,0,.6-1V35.65c0-.39-.27-.54-.61-.35Z"/><path class="cls-24" d="M124.15,42c-.07,0-.12,0-.12-.07V38.24a.26.26,0,0,1,.12-.21c.07,0,.12,0,.12.07v3.66A.25.25,0,0,1,124.15,42Z"/><path class="cls-24" d="M124.7,41.65l-1.1.63c-.06,0-.12,0-.12-.07a.26.26,0,0,1,.12-.21l1.1-.63c.07,0,.12,0,.12.07A.27.27,0,0,1,124.7,41.65Z"/><path class="cls-24" d="M125.32,37v1.71a1.6,1.6,0,0,1-.73,1.25l-.88.51c-.4.23-.73,0-.73-.42v-1.7l.44-.26v1.83c0,.08.06.11.12.07a.26.26,0,0,0,.12-.21V38Z"/><polygon class="cls-25" points="65.54 31.98 65.54 86.27 57.52 81.68 57.52 36.61 65.54 31.98"/><polygon class="cls-26" points="110.65 15.18 65.54 41.23 65.5 41.26 57.52 36.65 57.52 36.61 65.54 31.98 102.64 10.55 110.65 15.18"/></g></g></g></svg>