<svg xmlns="http://www.w3.org/2000/svg" xmlns:xlink="http://www.w3.org/1999/xlink" width="298" height="78" viewBox="0 0 298 78">
  <defs>
    <linearGradient id="linear-gradient" x1="0.86" y1="0.5" x2="0.28" y2="0.5" gradientUnits="objectBoundingBox">
      <stop offset="0.034" stop-color="#d34d4c"/>
      <stop offset="1" stop-color="#8ec3c7"/>
    </linearGradient>
    <linearGradient id="linear-gradient-2" x1="2.903" y1="0.5" x2="-3.37" y2="0.5" xlink:href="#linear-gradient"/>
    <clipPath id="clip-Logo1">
      <rect width="298" height="78"/>
    </clipPath>
  </defs>
  <g id="Logo1" clip-path="url(#clip-Logo1)">
    <rect id="Rectángulo_1" data-name="Rectángulo 1" width="298" height="78" fill="none"/>
    <path id="Trazado_1" data-name="Trazado 1" d="M153.655,420.688l-17.6-23.467c-.009-.012-.02-.022-.029-.034-.035-.044-.071-.087-.109-.129-.019-.022-.038-.044-.059-.065-.049-.05-.1-.1-.152-.143l-.031-.028a2.367,2.367,0,0,0-.2-.15l-.053-.032c-.054-.034-.11-.066-.168-.1l-.068-.033c-.055-.026-.11-.05-.167-.072l-.073-.027c-.057-.02-.116-.037-.175-.052l-.074-.019c-.062-.014-.125-.024-.189-.033l-.068-.01a2.332,2.332,0,0,0-.261-.015H86.461a2.347,2.347,0,1,0,0,4.693h14.927a1.643,1.643,0,0,1-.006,3.285H77.935a2.347,2.347,0,1,0,0,4.693h16.9a2.576,2.576,0,0,1,1.822,4.4,2.56,2.56,0,0,1-1.8.76H69.716a2.347,2.347,0,0,0,0,4.693H85.358a3.286,3.286,0,0,1,0,6.571H75.588a2.347,2.347,0,1,0,0,4.693H93.822a3.55,3.55,0,0,1,3.336,2.456,0,0,0,0,0,0,0,3.543,3.543,0,0,1-3.37,4.618H87.478a2.347,2.347,0,1,0,0,4.693H102.3a.685.685,0,0,1,.009,1.37H99.1a2.347,2.347,0,1,0,0,4.695h35.08a2.368,2.368,0,0,0,.275-.017h.005a2.392,2.392,0,0,0,.251-.044l.037-.01q.108-.027.212-.064l.046-.017q.1-.038.194-.084l.047-.023q.1-.05.191-.11l.033-.02a2.341,2.341,0,0,0,.208-.154l.022-.02q.084-.071.161-.15c.02-.021.039-.043.058-.064.038-.042.074-.084.109-.128.01-.012.021-.023.03-.036l17.6-23.467A2.347,2.347,0,0,0,153.655,420.688Zm-35.2-19.712h11.03l-7.039,9.386-7.04-9.386Zm-20.5,18.569,2.44-3.253h0l6.527-8.706h0l1-1.328h0l2.789-3.718,1.19,1.583h0l7.612,10.149-4.109,5.478H97.8Zm13.927,23.672-2.963-3.95-7.626-10.17-1.851-2.47,0,0-1.635-2.18h17.6l14.08,18.774Zm31.795-14.233-5.7-6.887-2.516,3.584,5.61,6.778-6.9,9.194L119.511,422.1l14.667-19.556L148.845,422.1Z" transform="translate(-29 -383)" fill="url(#linear-gradient)"/>
    <path id="Trazado_2" data-name="Trazado 2" d="M299.57,424.353h-8.014l3.859,5.145Z" transform="translate(-186.86 -401.644)" fill="url(#linear-gradient-2)"/>
    <text id="SENDPACK" transform="translate(149 40)" fill="#d34d4c" font-size="21" font-family="SegoeUI, Segoe UI"><tspan x="0" y="0">SENDPACK</tspan></text>
    <text id="Preocupate_por_otra_cosa" data-name="Preocupate por otra cosa" transform="translate(101.606 42.833)" fill="#fff" font-size="12" font-family="SegoeUI, Segoe UI"><tspan x="34.047" y="13">Preocupate por otra cosa</tspan></text>
  </g>
</svg>
